<mxfile host="app.diagrams.net" modified="2024-02-28T21:32:15.690Z" agent="Mozilla/5.0 (Windows NT 10.0; Win64; x64) AppleWebKit/537.36 (KHTML, like Gecko) Chrome/122.0.0.0 Safari/537.36" etag="gEF7GRuflrCryqsINPyj" version="23.1.5" type="device">
  <diagram name="Page-1" id="2YBvvXClWsGukQMizWep">
    <mxGraphModel dx="1615" dy="869" grid="1" gridSize="10" guides="1" tooltips="1" connect="1" arrows="1" fold="1" page="1" pageScale="1" pageWidth="850" pageHeight="1100" math="0" shadow="0">
      <root>
        <mxCell id="0" />
        <mxCell id="1" parent="0" />
        <mxCell id="e9a7-OQqLbqCCUV-cUYl-1" value="User" style="shape=umlLifeline;perimeter=lifelinePerimeter;whiteSpace=wrap;html=1;container=1;dropTarget=0;collapsible=0;recursiveResize=0;outlineConnect=0;portConstraint=eastwest;newEdgeStyle={&quot;curved&quot;:0,&quot;rounded&quot;:0};" vertex="1" parent="1">
          <mxGeometry x="40" y="40" width="100" height="700" as="geometry" />
        </mxCell>
        <mxCell id="e9a7-OQqLbqCCUV-cUYl-3" value="Login page" style="shape=umlLifeline;perimeter=lifelinePerimeter;whiteSpace=wrap;html=1;container=1;dropTarget=0;collapsible=0;recursiveResize=0;outlineConnect=0;portConstraint=eastwest;newEdgeStyle={&quot;curved&quot;:0,&quot;rounded&quot;:0};" vertex="1" parent="1">
          <mxGeometry x="200" y="40" width="100" height="700" as="geometry" />
        </mxCell>
        <mxCell id="e9a7-OQqLbqCCUV-cUYl-4" value="login service" style="shape=umlLifeline;perimeter=lifelinePerimeter;whiteSpace=wrap;html=1;container=1;dropTarget=0;collapsible=0;recursiveResize=0;outlineConnect=0;portConstraint=eastwest;newEdgeStyle={&quot;curved&quot;:0,&quot;rounded&quot;:0};" vertex="1" parent="1">
          <mxGeometry x="360" y="40" width="100" height="700" as="geometry" />
        </mxCell>
        <mxCell id="e9a7-OQqLbqCCUV-cUYl-5" value="Home page" style="shape=umlLifeline;perimeter=lifelinePerimeter;whiteSpace=wrap;html=1;container=1;dropTarget=0;collapsible=0;recursiveResize=0;outlineConnect=0;portConstraint=eastwest;newEdgeStyle={&quot;curved&quot;:0,&quot;rounded&quot;:0};" vertex="1" parent="1">
          <mxGeometry x="520" y="40" width="100" height="700" as="geometry" />
        </mxCell>
        <mxCell id="e9a7-OQqLbqCCUV-cUYl-45" value="" style="html=1;points=[[0,0,0,0,5],[0,1,0,0,-5],[1,0,0,0,5],[1,1,0,0,-5]];perimeter=orthogonalPerimeter;outlineConnect=0;targetShapes=umlLifeline;portConstraint=eastwest;newEdgeStyle={&quot;curved&quot;:0,&quot;rounded&quot;:0};" vertex="1" parent="e9a7-OQqLbqCCUV-cUYl-5">
          <mxGeometry x="45" y="350" width="10" height="80" as="geometry" />
        </mxCell>
        <mxCell id="e9a7-OQqLbqCCUV-cUYl-46" value="display top 5 tokens" style="html=1;align=left;spacingLeft=2;endArrow=block;rounded=0;edgeStyle=orthogonalEdgeStyle;curved=0;rounded=0;" edge="1" target="e9a7-OQqLbqCCUV-cUYl-45" parent="e9a7-OQqLbqCCUV-cUYl-5">
          <mxGeometry relative="1" as="geometry">
            <mxPoint x="50" y="330" as="sourcePoint" />
            <Array as="points">
              <mxPoint x="80" y="360" />
            </Array>
          </mxGeometry>
        </mxCell>
        <mxCell id="e9a7-OQqLbqCCUV-cUYl-6" value="Favorite token page" style="shape=umlLifeline;perimeter=lifelinePerimeter;whiteSpace=wrap;html=1;container=1;dropTarget=0;collapsible=0;recursiveResize=0;outlineConnect=0;portConstraint=eastwest;newEdgeStyle={&quot;curved&quot;:0,&quot;rounded&quot;:0};" vertex="1" parent="1">
          <mxGeometry x="680" y="40" width="100" height="700" as="geometry" />
        </mxCell>
        <mxCell id="e9a7-OQqLbqCCUV-cUYl-66" value="" style="html=1;points=[[0,0,0,0,5],[0,1,0,0,-5],[1,0,0,0,5],[1,1,0,0,-5]];perimeter=orthogonalPerimeter;outlineConnect=0;targetShapes=umlLifeline;portConstraint=eastwest;newEdgeStyle={&quot;curved&quot;:0,&quot;rounded&quot;:0};" vertex="1" parent="e9a7-OQqLbqCCUV-cUYl-6">
          <mxGeometry x="45" y="600" width="10" height="40" as="geometry" />
        </mxCell>
        <mxCell id="e9a7-OQqLbqCCUV-cUYl-7" value="Selected serivce" style="shape=umlLifeline;perimeter=lifelinePerimeter;whiteSpace=wrap;html=1;container=1;dropTarget=0;collapsible=0;recursiveResize=0;outlineConnect=0;portConstraint=eastwest;newEdgeStyle={&quot;curved&quot;:0,&quot;rounded&quot;:0};" vertex="1" parent="1">
          <mxGeometry x="840" y="40" width="100" height="700" as="geometry" />
        </mxCell>
        <mxCell id="e9a7-OQqLbqCCUV-cUYl-8" value="Database" style="shape=umlLifeline;perimeter=lifelinePerimeter;whiteSpace=wrap;html=1;container=1;dropTarget=0;collapsible=0;recursiveResize=0;outlineConnect=0;portConstraint=eastwest;newEdgeStyle={&quot;curved&quot;:0,&quot;rounded&quot;:0};" vertex="1" parent="1">
          <mxGeometry x="1000" y="40" width="100" height="700" as="geometry" />
        </mxCell>
        <mxCell id="e9a7-OQqLbqCCUV-cUYl-33" value="" style="html=1;points=[[0,0,0,0,5],[0,1,0,0,-5],[1,0,0,0,5],[1,1,0,0,-5]];perimeter=orthogonalPerimeter;outlineConnect=0;targetShapes=umlLifeline;portConstraint=eastwest;newEdgeStyle={&quot;curved&quot;:0,&quot;rounded&quot;:0};" vertex="1" parent="e9a7-OQqLbqCCUV-cUYl-8">
          <mxGeometry x="45" y="180" width="10" height="40" as="geometry" />
        </mxCell>
        <mxCell id="e9a7-OQqLbqCCUV-cUYl-34" value="login check" style="html=1;align=left;spacingLeft=2;endArrow=block;rounded=0;edgeStyle=orthogonalEdgeStyle;curved=0;rounded=0;" edge="1" target="e9a7-OQqLbqCCUV-cUYl-33" parent="e9a7-OQqLbqCCUV-cUYl-8">
          <mxGeometry relative="1" as="geometry">
            <mxPoint x="50" y="160" as="sourcePoint" />
            <Array as="points">
              <mxPoint x="80" y="190" />
            </Array>
          </mxGeometry>
        </mxCell>
        <mxCell id="e9a7-OQqLbqCCUV-cUYl-9" value="API" style="shape=umlLifeline;perimeter=lifelinePerimeter;whiteSpace=wrap;html=1;container=1;dropTarget=0;collapsible=0;recursiveResize=0;outlineConnect=0;portConstraint=eastwest;newEdgeStyle={&quot;curved&quot;:0,&quot;rounded&quot;:0};" vertex="1" parent="1">
          <mxGeometry x="1160" y="40" width="100" height="700" as="geometry" />
        </mxCell>
        <mxCell id="e9a7-OQqLbqCCUV-cUYl-12" value="" style="endArrow=open;endFill=1;endSize=12;html=1;rounded=0;" edge="1" parent="1" source="e9a7-OQqLbqCCUV-cUYl-15">
          <mxGeometry width="160" relative="1" as="geometry">
            <mxPoint x="250" y="180" as="sourcePoint" />
            <mxPoint x="410" y="180" as="targetPoint" />
          </mxGeometry>
        </mxCell>
        <mxCell id="e9a7-OQqLbqCCUV-cUYl-14" value="" style="rounded=0;whiteSpace=wrap;html=1;" vertex="1" parent="1">
          <mxGeometry x="245" y="150" width="10" height="30" as="geometry" />
        </mxCell>
        <mxCell id="e9a7-OQqLbqCCUV-cUYl-15" value="" style="rounded=0;whiteSpace=wrap;html=1;" vertex="1" parent="1">
          <mxGeometry x="405" y="170" width="10" height="90" as="geometry" />
        </mxCell>
        <mxCell id="e9a7-OQqLbqCCUV-cUYl-21" value="login" style="text;html=1;align=center;verticalAlign=middle;whiteSpace=wrap;rounded=0;" vertex="1" parent="1">
          <mxGeometry x="130" y="130" width="60" height="30" as="geometry" />
        </mxCell>
        <mxCell id="e9a7-OQqLbqCCUV-cUYl-22" value="login(username, password)" style="text;html=1;align=center;verticalAlign=middle;whiteSpace=wrap;rounded=0;" vertex="1" parent="1">
          <mxGeometry x="245" y="150" width="170" height="30" as="geometry" />
        </mxCell>
        <mxCell id="e9a7-OQqLbqCCUV-cUYl-24" value="" style="rounded=0;whiteSpace=wrap;html=1;" vertex="1" parent="1">
          <mxGeometry x="1045" y="180" width="10" height="30" as="geometry" />
        </mxCell>
        <mxCell id="e9a7-OQqLbqCCUV-cUYl-26" value="login(username, password)" style="text;html=1;align=center;verticalAlign=middle;whiteSpace=wrap;rounded=0;" vertex="1" parent="1">
          <mxGeometry x="580" y="160" width="170" height="30" as="geometry" />
        </mxCell>
        <mxCell id="e9a7-OQqLbqCCUV-cUYl-28" value="" style="endArrow=classic;html=1;rounded=0;entryX=0;entryY=0.25;entryDx=0;entryDy=0;" edge="1" parent="1" source="e9a7-OQqLbqCCUV-cUYl-1" target="e9a7-OQqLbqCCUV-cUYl-22">
          <mxGeometry width="50" height="50" relative="1" as="geometry">
            <mxPoint x="140" y="210" as="sourcePoint" />
            <mxPoint x="190" y="160" as="targetPoint" />
          </mxGeometry>
        </mxCell>
        <mxCell id="e9a7-OQqLbqCCUV-cUYl-29" value="" style="endArrow=classic;html=1;rounded=0;exitX=0.071;exitY=0.956;exitDx=0;exitDy=0;exitPerimeter=0;" edge="1" parent="1" source="e9a7-OQqLbqCCUV-cUYl-22" target="e9a7-OQqLbqCCUV-cUYl-4">
          <mxGeometry width="50" height="50" relative="1" as="geometry">
            <mxPoint x="140" y="210" as="sourcePoint" />
            <mxPoint x="190" y="160" as="targetPoint" />
          </mxGeometry>
        </mxCell>
        <mxCell id="e9a7-OQqLbqCCUV-cUYl-30" value="" style="endArrow=classic;html=1;rounded=0;entryX=0;entryY=0.25;entryDx=0;entryDy=0;" edge="1" parent="1" target="e9a7-OQqLbqCCUV-cUYl-24">
          <mxGeometry width="50" height="50" relative="1" as="geometry">
            <mxPoint x="420" y="188" as="sourcePoint" />
            <mxPoint x="450" y="160" as="targetPoint" />
          </mxGeometry>
        </mxCell>
        <mxCell id="e9a7-OQqLbqCCUV-cUYl-31" value="" style="endArrow=classic;html=1;rounded=0;exitX=0;exitY=0.75;exitDx=0;exitDy=0;exitPerimeter=0;" edge="1" parent="1" source="e9a7-OQqLbqCCUV-cUYl-33">
          <mxGeometry width="50" height="50" relative="1" as="geometry">
            <mxPoint x="1035.09" y="250" as="sourcePoint" />
            <mxPoint x="420" y="250" as="targetPoint" />
          </mxGeometry>
        </mxCell>
        <mxCell id="e9a7-OQqLbqCCUV-cUYl-32" value="operation succes" style="text;html=1;align=center;verticalAlign=middle;whiteSpace=wrap;rounded=0;" vertex="1" parent="1">
          <mxGeometry x="740" y="220" width="110" height="30" as="geometry" />
        </mxCell>
        <mxCell id="e9a7-OQqLbqCCUV-cUYl-35" value="" style="rounded=0;whiteSpace=wrap;html=1;" vertex="1" parent="1">
          <mxGeometry x="565" y="350" width="10" height="30" as="geometry" />
        </mxCell>
        <mxCell id="e9a7-OQqLbqCCUV-cUYl-37" value="" style="endArrow=classic;html=1;rounded=0;entryX=0;entryY=0.25;entryDx=0;entryDy=0;" edge="1" parent="1" source="e9a7-OQqLbqCCUV-cUYl-1" target="e9a7-OQqLbqCCUV-cUYl-35">
          <mxGeometry width="50" height="50" relative="1" as="geometry">
            <mxPoint x="420" y="410" as="sourcePoint" />
            <mxPoint x="470" y="360" as="targetPoint" />
          </mxGeometry>
        </mxCell>
        <mxCell id="e9a7-OQqLbqCCUV-cUYl-38" value="open main page" style="text;html=1;align=center;verticalAlign=middle;whiteSpace=wrap;rounded=0;" vertex="1" parent="1">
          <mxGeometry x="280" y="330" width="90" height="30" as="geometry" />
        </mxCell>
        <mxCell id="e9a7-OQqLbqCCUV-cUYl-40" value="" style="rounded=0;whiteSpace=wrap;html=1;" vertex="1" parent="1">
          <mxGeometry x="1045" y="410" width="10" height="40" as="geometry" />
        </mxCell>
        <mxCell id="e9a7-OQqLbqCCUV-cUYl-48" value="" style="endArrow=classic;html=1;rounded=0;" edge="1" parent="1">
          <mxGeometry width="50" height="50" relative="1" as="geometry">
            <mxPoint x="574.9973684210527" y="420" as="sourcePoint" />
            <mxPoint x="1040" y="420" as="targetPoint" />
          </mxGeometry>
        </mxCell>
        <mxCell id="e9a7-OQqLbqCCUV-cUYl-49" value="getTop5()" style="text;html=1;align=center;verticalAlign=middle;whiteSpace=wrap;rounded=0;" vertex="1" parent="1">
          <mxGeometry x="765" y="390" width="60" height="30" as="geometry" />
        </mxCell>
        <mxCell id="e9a7-OQqLbqCCUV-cUYl-52" value="" style="rounded=0;whiteSpace=wrap;html=1;" vertex="1" parent="1">
          <mxGeometry x="1205" y="410" width="10" height="40" as="geometry" />
        </mxCell>
        <mxCell id="e9a7-OQqLbqCCUV-cUYl-53" value="" style="endArrow=classic;html=1;rounded=0;exitX=1;exitY=0.25;exitDx=0;exitDy=0;" edge="1" parent="1" source="e9a7-OQqLbqCCUV-cUYl-40" target="e9a7-OQqLbqCCUV-cUYl-9">
          <mxGeometry width="50" height="50" relative="1" as="geometry">
            <mxPoint x="900" y="350" as="sourcePoint" />
            <mxPoint x="950" y="300" as="targetPoint" />
          </mxGeometry>
        </mxCell>
        <mxCell id="e9a7-OQqLbqCCUV-cUYl-54" value="getTokenInfo" style="text;html=1;align=center;verticalAlign=middle;whiteSpace=wrap;rounded=0;" vertex="1" parent="1">
          <mxGeometry x="1090" y="390" width="60" height="30" as="geometry" />
        </mxCell>
        <mxCell id="e9a7-OQqLbqCCUV-cUYl-55" value="" style="endArrow=classic;html=1;rounded=0;" edge="1" parent="1">
          <mxGeometry width="50" height="50" relative="1" as="geometry">
            <mxPoint x="1205" y="440" as="sourcePoint" />
            <mxPoint x="1050" y="440" as="targetPoint" />
          </mxGeometry>
        </mxCell>
        <mxCell id="e9a7-OQqLbqCCUV-cUYl-56" value="return tokenInfo" style="text;html=1;align=center;verticalAlign=middle;whiteSpace=wrap;rounded=0;" vertex="1" parent="1">
          <mxGeometry x="1100" y="440" width="90" height="30" as="geometry" />
        </mxCell>
        <mxCell id="e9a7-OQqLbqCCUV-cUYl-57" value="" style="endArrow=classic;html=1;rounded=0;" edge="1" parent="1" target="e9a7-OQqLbqCCUV-cUYl-5">
          <mxGeometry width="50" height="50" relative="1" as="geometry">
            <mxPoint x="1045" y="438.95" as="sourcePoint" />
            <mxPoint x="890" y="438.95" as="targetPoint" />
          </mxGeometry>
        </mxCell>
        <mxCell id="e9a7-OQqLbqCCUV-cUYl-58" value="return tokens list" style="text;html=1;align=center;verticalAlign=middle;whiteSpace=wrap;rounded=0;" vertex="1" parent="1">
          <mxGeometry x="730" y="440" width="150" height="30" as="geometry" />
        </mxCell>
        <mxCell id="e9a7-OQqLbqCCUV-cUYl-59" value="" style="endArrow=classic;html=1;rounded=0;" edge="1" parent="1" source="e9a7-OQqLbqCCUV-cUYl-61" target="e9a7-OQqLbqCCUV-cUYl-6">
          <mxGeometry width="50" height="50" relative="1" as="geometry">
            <mxPoint x="89.44736842105249" y="560" as="sourcePoint" />
            <mxPoint x="600" y="560" as="targetPoint" />
          </mxGeometry>
        </mxCell>
        <mxCell id="e9a7-OQqLbqCCUV-cUYl-60" value="open favorite tokens page" style="text;html=1;align=center;verticalAlign=middle;whiteSpace=wrap;rounded=0;" vertex="1" parent="1">
          <mxGeometry x="250" y="535" width="150" height="30" as="geometry" />
        </mxCell>
        <mxCell id="e9a7-OQqLbqCCUV-cUYl-62" value="" style="endArrow=classic;html=1;rounded=0;" edge="1" parent="1" target="e9a7-OQqLbqCCUV-cUYl-61">
          <mxGeometry width="50" height="50" relative="1" as="geometry">
            <mxPoint x="89.44736842105249" y="560" as="sourcePoint" />
            <mxPoint x="730" y="560" as="targetPoint" />
          </mxGeometry>
        </mxCell>
        <mxCell id="e9a7-OQqLbqCCUV-cUYl-61" value="" style="rounded=0;whiteSpace=wrap;html=1;" vertex="1" parent="1">
          <mxGeometry x="725" y="550" width="10" height="30" as="geometry" />
        </mxCell>
        <mxCell id="e9a7-OQqLbqCCUV-cUYl-63" value="" style="rounded=0;whiteSpace=wrap;html=1;" vertex="1" parent="1">
          <mxGeometry x="885" y="660" width="10" height="30" as="geometry" />
        </mxCell>
        <mxCell id="e9a7-OQqLbqCCUV-cUYl-67" value="display tokens" style="html=1;align=left;spacingLeft=2;endArrow=block;rounded=0;edgeStyle=orthogonalEdgeStyle;curved=0;rounded=0;" edge="1" target="e9a7-OQqLbqCCUV-cUYl-66" parent="1">
          <mxGeometry relative="1" as="geometry">
            <mxPoint x="735" y="565" as="sourcePoint" />
            <Array as="points">
              <mxPoint x="765" y="595" />
            </Array>
          </mxGeometry>
        </mxCell>
        <mxCell id="e9a7-OQqLbqCCUV-cUYl-70" value="get favorite tokens list" style="text;html=1;align=center;verticalAlign=middle;whiteSpace=wrap;rounded=0;" vertex="1" parent="1">
          <mxGeometry x="750" y="640" width="110" height="30" as="geometry" />
        </mxCell>
        <mxCell id="e9a7-OQqLbqCCUV-cUYl-74" value="" style="endArrow=classic;html=1;rounded=0;entryX=0;entryY=0.5;entryDx=0;entryDy=0;" edge="1" parent="1" target="e9a7-OQqLbqCCUV-cUYl-63">
          <mxGeometry width="50" height="50" relative="1" as="geometry">
            <mxPoint x="740" y="675" as="sourcePoint" />
            <mxPoint x="920.55" y="674.47" as="targetPoint" />
          </mxGeometry>
        </mxCell>
        <mxCell id="e9a7-OQqLbqCCUV-cUYl-75" value="" style="endArrow=classic;html=1;rounded=0;" edge="1" parent="1" target="e9a7-OQqLbqCCUV-cUYl-8">
          <mxGeometry width="50" height="50" relative="1" as="geometry">
            <mxPoint x="895" y="670" as="sourcePoint" />
            <mxPoint x="945" y="620" as="targetPoint" />
          </mxGeometry>
        </mxCell>
        <mxCell id="e9a7-OQqLbqCCUV-cUYl-84" style="edgeStyle=orthogonalEdgeStyle;rounded=0;orthogonalLoop=1;jettySize=auto;html=1;" edge="1" parent="1" source="e9a7-OQqLbqCCUV-cUYl-76" target="e9a7-OQqLbqCCUV-cUYl-78">
          <mxGeometry relative="1" as="geometry" />
        </mxCell>
        <mxCell id="e9a7-OQqLbqCCUV-cUYl-76" value="" style="rounded=0;whiteSpace=wrap;html=1;" vertex="1" parent="1">
          <mxGeometry x="1045" y="660" width="10" height="30" as="geometry" />
        </mxCell>
        <mxCell id="e9a7-OQqLbqCCUV-cUYl-78" value="" style="rounded=0;whiteSpace=wrap;html=1;" vertex="1" parent="1">
          <mxGeometry x="1205" y="660" width="10" height="30" as="geometry" />
        </mxCell>
        <mxCell id="e9a7-OQqLbqCCUV-cUYl-80" value="get favorite tokens list" style="text;html=1;align=center;verticalAlign=middle;whiteSpace=wrap;rounded=0;" vertex="1" parent="1">
          <mxGeometry x="910" y="640" width="110" height="30" as="geometry" />
        </mxCell>
        <mxCell id="e9a7-OQqLbqCCUV-cUYl-81" value="get tokenInfo" style="text;html=1;align=center;verticalAlign=middle;whiteSpace=wrap;rounded=0;" vertex="1" parent="1">
          <mxGeometry x="1080" y="650" width="110" height="30" as="geometry" />
        </mxCell>
        <mxCell id="e9a7-OQqLbqCCUV-cUYl-82" value="" style="endArrow=classic;html=1;rounded=0;" edge="1" parent="1">
          <mxGeometry width="50" height="50" relative="1" as="geometry">
            <mxPoint x="1205" y="690" as="sourcePoint" />
            <mxPoint x="1050" y="690" as="targetPoint" />
          </mxGeometry>
        </mxCell>
        <mxCell id="e9a7-OQqLbqCCUV-cUYl-83" value="return tokenInfo" style="text;html=1;align=center;verticalAlign=middle;whiteSpace=wrap;rounded=0;" vertex="1" parent="1">
          <mxGeometry x="1100" y="690" width="90" height="30" as="geometry" />
        </mxCell>
        <mxCell id="e9a7-OQqLbqCCUV-cUYl-85" value="" style="endArrow=classic;html=1;rounded=0;" edge="1" parent="1">
          <mxGeometry width="50" height="50" relative="1" as="geometry">
            <mxPoint x="1045" y="689.39" as="sourcePoint" />
            <mxPoint x="890" y="689.39" as="targetPoint" />
          </mxGeometry>
        </mxCell>
        <mxCell id="e9a7-OQqLbqCCUV-cUYl-86" value="return tokens list" style="text;html=1;align=center;verticalAlign=middle;whiteSpace=wrap;rounded=0;" vertex="1" parent="1">
          <mxGeometry x="930" y="690" width="100" height="30" as="geometry" />
        </mxCell>
      </root>
    </mxGraphModel>
  </diagram>
</mxfile>
